
        <svg xmlns="http://www.w3.org/2000/svg" xmlns:xlink="http://www.w3.org/1999/xlink" version="1.1" width="1799.0275526742303" height="3097.2447325769854" viewBox="0 0 1799.0275526742303 3097.2447325769854">
			
			<g transform="scale(4.862236628849271) translate(10, 10)">
				<defs id="SvgjsDefs18632"/><g id="SvgjsG18633" featureKey="rootContainer" transform="matrix(1,0,0,1,0,0)" fill="#fff"><path xmlns="http://www.w3.org/2000/svg" fill-rule="evenodd" d="M5,65 L175,0 L345, 65 L175, 10 z M5,537 L175,617 L345,532 L175, 607 z"/></g><g id="SvgjsG18634" featureKey="nRdZyp-0" transform="matrix(1.403755044744692,0,0,1.403755044744692,126.4309758676481,104.03755044744692)" fill="#fff"><path xmlns="http://www.w3.org/2000/svg" d="M75.6-9.1l0.5,3.8l1.7,0.6l-1.7,0.6l-0.5,3.7L75-4.1l-1.7-0.6L75-5.3L75.6-9.1z"/><path xmlns="http://www.w3.org/2000/svg" d="M66.5-10l1.1,7.9L71.2-1l-3.6,1.2l-1.1,7.7l-1.1-7.7L61.9-1l3.6-1.2L66.5-10z"/><path xmlns="http://www.w3.org/2000/svg" d="M75.8,2.1l0.7,5.1L78.8,8l-2.3,0.8l-0.7,5l-0.7-5L72.8,8l2.3-0.7L75.8,2.1z"/><path xmlns="http://www.w3.org/2000/svg" d="M0.2,21.6l0.6,4.2l1.9,0.6l-1.9,0.6l-0.6,4.2l-0.6-4.2l-1.9-0.6l1.9-0.6L0.2,21.6z"/><g xmlns="http://www.w3.org/2000/svg"><g><path d="M73.9,15.9c-0.7,4.1-16.7,4.6-31.1,2.1C28.3,15.4,13.5,9.4,14.2,5.3c0.7-4.1,16.7-4.6,31.1-2.1    C59.7,5.8,74.6,11.8,73.9,15.9z"/></g></g><g xmlns="http://www.w3.org/2000/svg"><path d="M62.5,60.7l1-4l10-39.4c0,0,0,0,0,0c-0.1,0.1-0.1,0.2-0.2,0.3c0,0,0,0,0,0c-1.2,1.5-4.9,2.3-9.7,2.6c0,0-0.1,0-0.1,0   c-0.3,0-0.6,0-0.9,0c-0.1,0-0.2,0-0.2,0c-0.3,0-0.5,0-0.8,0c-0.1,0-0.2,0-0.3,0c-0.3,0-0.5,0-0.8,0c-0.1,0-0.3,0-0.4,0   c-0.2,0-0.5,0-0.7,0c-0.2,0-0.3,0-0.5,0c-0.2,0-0.5,0-0.7,0c-0.2,0-0.4,0-0.5,0c-0.2,0-0.4,0-0.7,0c-0.2,0-0.4,0-0.6,0   c-0.2,0-0.4,0-0.6,0c-0.2,0-0.4,0-0.6,0c-0.2,0-0.4,0-0.6,0c-0.2,0-0.5,0-0.7,0c-0.2,0-0.4,0-0.6,0c-0.2,0-0.5,0-0.7-0.1   c-0.2,0-0.4,0-0.6,0c-0.3,0-0.5,0-0.8-0.1c-0.2,0-0.4,0-0.5,0c-0.3,0-0.5-0.1-0.8-0.1c-0.2,0-0.3,0-0.5-0.1c-0.3,0-0.6-0.1-0.9-0.1   c-0.2,0-0.3,0-0.5-0.1c-0.3,0-0.6-0.1-0.9-0.1c-0.1,0-0.3,0-0.4-0.1c-0.3,0-0.7-0.1-1-0.1c-0.1,0-0.2,0-0.3,0   c-0.4-0.1-0.9-0.1-1.3-0.2c0,0,0,0,0,0C43.5,19,43,19,42.6,18.9c-0.4-0.1-0.9-0.2-1.3-0.2c0,0,0,0,0,0c-0.4-0.1-0.9-0.2-1.3-0.3   c-0.1,0-0.2,0-0.3-0.1c-0.3-0.1-0.7-0.1-1-0.2c-0.1,0-0.3-0.1-0.4-0.1c-0.3-0.1-0.6-0.1-0.9-0.2c-0.2,0-0.3-0.1-0.4-0.1   c-0.3-0.1-0.6-0.1-0.9-0.2c-0.2,0-0.3-0.1-0.5-0.1c-0.3-0.1-0.5-0.1-0.8-0.2c-0.2,0-0.4-0.1-0.5-0.1c-0.2-0.1-0.5-0.1-0.7-0.2   c-0.2-0.1-0.4-0.1-0.6-0.2c-0.2-0.1-0.5-0.1-0.7-0.2c-0.2-0.1-0.4-0.1-0.6-0.2c-0.2-0.1-0.4-0.1-0.6-0.2c-0.2-0.1-0.4-0.1-0.6-0.2   c-0.2-0.1-0.4-0.1-0.6-0.2c-0.2-0.1-0.4-0.1-0.6-0.2c-0.2-0.1-0.4-0.1-0.6-0.2c-0.2-0.1-0.4-0.1-0.6-0.2c-0.2-0.1-0.3-0.1-0.5-0.2   c-0.2-0.1-0.4-0.2-0.6-0.2c-0.2-0.1-0.3-0.1-0.5-0.2c-0.2-0.1-0.5-0.2-0.7-0.2c-0.1,0-0.3-0.1-0.4-0.1c-0.2-0.1-0.5-0.2-0.7-0.3   c-0.1,0-0.2-0.1-0.3-0.1c-0.3-0.1-0.5-0.2-0.8-0.3c-0.1,0-0.1-0.1-0.2-0.1c-0.3-0.1-0.5-0.2-0.8-0.3c0,0,0,0-0.1,0   c-4.8-2.1-8-4.3-8.3-6.2L10,47.3l-0.4,4.1C-1,51.8-8.1,54.2-8.8,58.1c-1.2,6.7,17.2,15.6,41,19.8C56,82,76.3,80,77.4,73.3   C78.1,69.4,72.2,64.7,62.5,60.7z M60.7,68.3L60.7,68.3C60.7,68.4,60.7,68.4,60.7,68.3c-0.6,3.6-14.6,4.1-27.2,1.9   C20.9,68,8,62.8,8.6,59.2l0.9-7.6l0,0c0,0,0,0,0-0.1c0-0.1,0.1-0.3,0.1-0.4C10,54.8,22.7,59.8,35,62s25.9,1.8,27.5-1.5   c0,0.1,0,0.3,0,0.4L60.7,68.3z"/></g></g><g id="SvgjsG18635" featureKey="Q4qmbg-0" transform="matrix(10.008446328290663,0,0,10.008446328290663,2.506776602198009,197.96790204353584)" fill="#fff"><path d="M-0.02 15.120000000000001 l2.02 0 c-0.42 2.58 -0.3 3.08 0.42 3.08 c0.98 0 1.12 -0.82 1.5 -3 c0.56 -3.2 -3.54 -2.34 -2.8 -6.6 c0.44 -2.5 0.86 -4.8 3.86 -4.8 c2.22 0 2.6 1.26 2.2 4.28 l-2 0 c0.3 -2.18 0.16 -2.68 -0.48 -2.68 c-0.98 0 -1.18 1.08 -1.56 3.2 c-0.54 3.1 3.64 2 2.82 6.6 c-0.48 2.8 -0.88 5 -3.9 5 c-2.32 0 -2.62 -1.38 -2.08 -5.08 z M7.42 20 l2.5 -14.2 l-2 0 l0.32 -1.8 l6 0 l-0.32 1.8 l-2 0 l-2.5 14.2 l-2 0 z M12.120000000000001 20 l1.48 -8.4 c0.98 -5.58 1.38 -7.78 4.38 -7.78 s2.6 2.2 1.62 7.78 l-1.48 8.4 l-2 0 l0.82 -4.6 l-2 0 l-0.82 4.6 l-2 0 z M15.220000000000002 13.8 l2 0 l0.38 -2.2 c0.92 -5.2 1.08 -6.18 0.08 -6.18 s-1.16 0.98 -2.08 6.18 z M20.900000000000002 11.58 c0.98 -5.58 1.38 -7.78 4.18 -7.78 c2.06 0 2.4 1.26 2 4.28 l-1.86 0 c0.3 -2.18 0.18 -2.68 -0.42 -2.68 c-0.92 0 -1.1 0.98 -2.02 6.18 c-1.02 5.78 -1.16 6.62 -0.24 6.62 c0.66 0 0.94 -0.5 1.44 -3.08 l1.88 0 c-0.78 3.7 -1.52 5.08 -3.68 5.08 c-2.8 0 -2.4 -2.22 -1.28 -8.62 z M25.900000000000002 20 l2.82 -16 l2 0 l-1.12 6.34 l3.12 -6.34 l2 0 l-3.74 7.6 l0.92 8.4 l-2 0 l-0.76 -7 l-1.24 7 l-2 0 z"/></g><g id="SvgjsG18636" featureKey="Q4qmbg-1" transform="matrix(7.128385667368987,0,0,7.128385667368987,-3.7067604110687067,382.91213310436615)" fill="#fff"><path d="M0.52 20 l1.42 -16 l2.1 0 l-1.52 12.04 l0.2 0 l3.32 -12.04 l1.7 0 l-0.92 12.04 l0.2 0 l2.72 -12.04 l2.1 0 l-4.22 16 l-2.4 0 l0.34 -8.36 l-2.64 8.36 l-2.4 0 z M10.12 20 l2.82 -16 l2 0 l-2.82 16 l-2 0 z M12.82 20 l6.14 -14.4 l-3.2 0 l0.28 -1.6 l5.6 0 l-5.96 14 l3.1 0 l-0.36 2 l-5.6 0 z M19.52 20 l1.48 -8.4 c0.98 -5.58 1.38 -7.78 4.38 -7.78 s2.6 2.2 1.62 7.78 l-1.48 8.4 l-2 0 l0.82 -4.6 l-2 0 l-0.82 4.6 l-2 0 z M22.62 13.8 l2 0 l0.38 -2.2 c0.92 -5.2 1.08 -6.18 0.08 -6.18 s-1.16 0.98 -2.08 6.18 z M27.02 20 l2.82 -16 l3.24 0 c2.06 0 2.54 1.26 2.12 3.68 c-0.4 2.18 -0.88 3.42 -1.6 4.02 l-0.02 0.12 c0.48 0.18 0.48 1.12 0.28 3.46 l-0.44 4.72 l-2 0 l0.58 -4.72 c0.28 -2.38 0 -2.88 -0.6 -2.88 l-1.04 0 l-1.34 7.6 l-2 0 z M30.64 10.8 l1.24 0 c0.7 0 1.02 -0.7 1.46 -3.12 c0.26 -1.58 0.06 -2.08 -0.54 -2.08 l-1.24 0 z M34.52 20 l2.82 -16 l3 0 c3 0 2.62 2.2 1.66 7.58 c-1.08 6.2 -1.48 8.42 -4.48 8.42 l-3 0 z M36.88 18 l1 0 c1.12 0 1.26 -0.84 2.24 -6.42 c0.88 -5 1.06 -5.98 -0.06 -5.98 l-1 0 z M42.279999999999994 15.120000000000001 l2.02 0 c-0.42 2.58 -0.3 3.08 0.42 3.08 c0.98 0 1.12 -0.82 1.5 -3 c0.56 -3.2 -3.54 -2.34 -2.8 -6.6 c0.44 -2.5 0.86 -4.8 3.86 -4.8 c2.22 0 2.6 1.26 2.2 4.28 l-2 0 c0.3 -2.18 0.16 -2.68 -0.48 -2.68 c-0.98 0 -1.18 1.08 -1.56 3.2 c-0.54 3.1 3.64 2 2.82 6.6 c-0.48 2.8 -0.88 5 -3.9 5 c-2.32 0 -2.62 -1.38 -2.08 -5.08 z"/></g>
			</g>
		</svg>
	